<svg version="1.1" xmlns="http://www.w3.org/2000/svg" xmlns:xlink="http://www.w3.org/1999/xlink" width="284" height="168"><defs/><g><text fill="#eeeeee" stroke="none" font-family="Arial" font-size="24px" font-style="normal" font-weight="normal" text-decoration="none" x="0" y="0">UNREGISTERED</text><text fill="#eeeeee" stroke="none" font-family="Arial" font-size="24px" font-style="normal" font-weight="normal" text-decoration="none" x="0" y="30">UNREGISTERED</text><text fill="#eeeeee" stroke="none" font-family="Arial" font-size="24px" font-style="normal" font-weight="normal" text-decoration="none" x="0" y="60">UNREGISTERED</text><text fill="#eeeeee" stroke="none" font-family="Arial" font-size="24px" font-style="normal" font-weight="normal" text-decoration="none" x="0" y="90">UNREGISTERED</text><text fill="#eeeeee" stroke="none" font-family="Arial" font-size="24px" font-style="normal" font-weight="normal" text-decoration="none" x="0" y="120">UNREGISTERED</text><text fill="#eeeeee" stroke="none" font-family="Arial" font-size="24px" font-style="normal" font-weight="normal" text-decoration="none" x="0" y="150">UNREGISTERED</text><text fill="#eeeeee" stroke="none" font-family="Arial" font-size="24px" font-style="normal" font-weight="normal" text-decoration="none" x="200" y="0">UNREGISTERED</text><text fill="#eeeeee" stroke="none" font-family="Arial" font-size="24px" font-style="normal" font-weight="normal" text-decoration="none" x="200" y="30">UNREGISTERED</text><text fill="#eeeeee" stroke="none" font-family="Arial" font-size="24px" font-style="normal" font-weight="normal" text-decoration="none" x="200" y="60">UNREGISTERED</text><text fill="#eeeeee" stroke="none" font-family="Arial" font-size="24px" font-style="normal" font-weight="normal" text-decoration="none" x="200" y="90">UNREGISTERED</text><text fill="#eeeeee" stroke="none" font-family="Arial" font-size="24px" font-style="normal" font-weight="normal" text-decoration="none" x="200" y="120">UNREGISTERED</text><text fill="#eeeeee" stroke="none" font-family="Arial" font-size="24px" font-style="normal" font-weight="normal" text-decoration="none" x="200" y="150">UNREGISTERED</text><g transform="translate(-18,-18) scale(1,1)"><rect fill="#C0C0C0" stroke="none" x="219" y="91" width="80" height="36" opacity="0.2"/></g><g transform="translate(-18,-18) scale(1,1)"><rect fill="#ffffff" stroke="none" x="212" y="84" width="80" height="36"/></g><g transform="translate(-18,-18) scale(1,1)"><path fill="none" stroke="#000000" d="M 212 84 L 292 84 L 292 120 L 212 120 L 212 84 Z Z" stroke-miterlimit="10"/></g><g transform="translate(-18,-18) scale(1,1)"><g><path fill="none" stroke="none"/><text fill="#000000" stroke="none" font-family="Arial" font-size="12px" font-style="normal" font-weight="normal" text-decoration="none" x="217.3095703125" y="100.5">«stereotype»</text></g></g><g transform="translate(-18,-18) scale(1,1)"><g><path fill="none" stroke="none"/><text fill="#000000" stroke="none" font-family="Arial" font-size="12px" font-style="normal" font-weight="bold" text-decoration="none" x="237.6591796875" y="114.5">entity</text></g></g><g transform="translate(-18,-18) scale(1,1)"><rect fill="#C0C0C0" stroke="none" x="35" y="35" width="88" height="148" opacity="0.2"/></g><g transform="translate(-18,-18) scale(1,1)"><rect fill="#e2e2e2" stroke="none" x="28" y="28" width="88" height="148"/></g><g transform="translate(-18,-18) scale(1,1)"><path fill="none" stroke="#000000" d="M 28 28 L 116 28 L 116 176 L 28 176 L 28 28 Z Z" stroke-miterlimit="10"/></g><g transform="translate(-18,-18) scale(1,1)"><g><path fill="none" stroke="none"/><text fill="#000000" stroke="none" font-family="Arial" font-size="12px" font-style="normal" font-weight="normal" text-decoration="none" x="36.984375" y="44.5">«metaClass»</text></g></g><g transform="translate(-18,-18) scale(1,1)"><g><path fill="none" stroke="none"/><text fill="#000000" stroke="none" font-family="Arial" font-size="12px" font-style="normal" font-weight="bold" text-decoration="none" x="44.3291015625" y="58.5">UMLClass</text></g></g><g transform="translate(-18,-18) scale(1,1)"><path fill="none" stroke="#000000" d="M 212 100 L 116 100" stroke-miterlimit="10"/></g><g transform="translate(-18,-18) scale(1,1)"><path fill="#000000" stroke="none" d="M 126.16267485762415 95.79048224398402 L 116 100 L 126.16267485762415 104.20951775601598"/></g><g transform="translate(-18,-18) scale(1,1)"><path fill="none" stroke="#000000" d="M 126.16267485762415 95.79048224398402 L 116 100 L 126.16267485762415 104.20951775601598 L 126.16267485762415 95.79048224398402" stroke-miterlimit="10"/></g><g transform="translate(-18,-18) scale(1,1)"><rect fill="#C0C0C0" stroke="none" x="219" y="39" width="80" height="36" opacity="0.2"/></g><g transform="translate(-18,-18) scale(1,1)"><rect fill="#ffffff" stroke="none" x="212" y="32" width="80" height="36"/></g><g transform="translate(-18,-18) scale(1,1)"><path fill="none" stroke="#000000" d="M 212 32 L 292 32 L 292 68 L 212 68 L 212 32 Z Z" stroke-miterlimit="10"/></g><g transform="translate(-18,-18) scale(1,1)"><g><path fill="none" stroke="none"/><text fill="#000000" stroke="none" font-family="Arial" font-size="12px" font-style="normal" font-weight="normal" text-decoration="none" x="217.3095703125" y="48.5">«stereotype»</text></g></g><g transform="translate(-18,-18) scale(1,1)"><g><path fill="none" stroke="none"/><text fill="#000000" stroke="none" font-family="Arial" font-size="12px" font-style="normal" font-weight="bold" text-decoration="none" x="233.9912109375" y="62.5">control</text></g></g><g transform="translate(-18,-18) scale(1,1)"><path fill="none" stroke="#000000" d="M 212 52 L 116 52" stroke-miterlimit="10"/></g><g transform="translate(-18,-18) scale(1,1)"><path fill="#000000" stroke="none" d="M 126.16267485762415 47.790482243984016 L 116 52 L 126.16267485762415 56.209517756015984"/></g><g transform="translate(-18,-18) scale(1,1)"><path fill="none" stroke="#000000" d="M 126.16267485762415 47.790482243984016 L 116 52 L 126.16267485762415 56.209517756015984 L 126.16267485762415 47.790482243984016" stroke-miterlimit="10"/></g><g transform="translate(-18,-18) scale(1,1)"><rect fill="#C0C0C0" stroke="none" x="219" y="143" width="80" height="36" opacity="0.2"/></g><g transform="translate(-18,-18) scale(1,1)"><rect fill="#ffffff" stroke="none" x="212" y="136" width="80" height="36"/></g><g transform="translate(-18,-18) scale(1,1)"><path fill="none" stroke="#000000" d="M 212 136 L 292 136 L 292 172 L 212 172 L 212 136 Z Z" stroke-miterlimit="10"/></g><g transform="translate(-18,-18) scale(1,1)"><g><path fill="none" stroke="none"/><text fill="#000000" stroke="none" font-family="Arial" font-size="12px" font-style="normal" font-weight="normal" text-decoration="none" x="217.3095703125" y="152.5">«stereotype»</text></g></g><g transform="translate(-18,-18) scale(1,1)"><g><path fill="none" stroke="none"/><text fill="#000000" stroke="none" font-family="Arial" font-size="12px" font-style="normal" font-weight="bold" text-decoration="none" x="226.98046875" y="166.5">boundary</text></g></g><g transform="translate(-18,-18) scale(1,1)"><path fill="none" stroke="#000000" d="M 212 156 L 116 156" stroke-miterlimit="10"/></g><g transform="translate(-18,-18) scale(1,1)"><path fill="#000000" stroke="none" d="M 126.16267485762415 151.790482243984 L 116 156 L 126.16267485762415 160.209517756016"/></g><g transform="translate(-18,-18) scale(1,1)"><path fill="none" stroke="#000000" d="M 126.16267485762415 151.790482243984 L 116 156 L 126.16267485762415 160.209517756016 L 126.16267485762415 151.790482243984" stroke-miterlimit="10"/></g></g></svg>