<svg version="1.1" xmlns="http://www.w3.org/2000/svg" xmlns:xlink="http://www.w3.org/1999/xlink" width="580" height="673"><defs/><g><text fill="#eeeeee" stroke="none" font-family="Arial" font-size="24px" font-style="normal" font-weight="normal" text-decoration="none" x="0" y="0">UNREGISTERED</text><text fill="#eeeeee" stroke="none" font-family="Arial" font-size="24px" font-style="normal" font-weight="normal" text-decoration="none" x="0" y="30">UNREGISTERED</text><text fill="#eeeeee" stroke="none" font-family="Arial" font-size="24px" font-style="normal" font-weight="normal" text-decoration="none" x="0" y="60">UNREGISTERED</text><text fill="#eeeeee" stroke="none" font-family="Arial" font-size="24px" font-style="normal" font-weight="normal" text-decoration="none" x="0" y="90">UNREGISTERED</text><text fill="#eeeeee" stroke="none" font-family="Arial" font-size="24px" font-style="normal" font-weight="normal" text-decoration="none" x="0" y="120">UNREGISTERED</text><text fill="#eeeeee" stroke="none" font-family="Arial" font-size="24px" font-style="normal" font-weight="normal" text-decoration="none" x="0" y="150">UNREGISTERED</text><text fill="#eeeeee" stroke="none" font-family="Arial" font-size="24px" font-style="normal" font-weight="normal" text-decoration="none" x="0" y="180">UNREGISTERED</text><text fill="#eeeeee" stroke="none" font-family="Arial" font-size="24px" font-style="normal" font-weight="normal" text-decoration="none" x="0" y="210">UNREGISTERED</text><text fill="#eeeeee" stroke="none" font-family="Arial" font-size="24px" font-style="normal" font-weight="normal" text-decoration="none" x="0" y="240">UNREGISTERED</text><text fill="#eeeeee" stroke="none" font-family="Arial" font-size="24px" font-style="normal" font-weight="normal" text-decoration="none" x="0" y="270">UNREGISTERED</text><text fill="#eeeeee" stroke="none" font-family="Arial" font-size="24px" font-style="normal" font-weight="normal" text-decoration="none" x="0" y="300">UNREGISTERED</text><text fill="#eeeeee" stroke="none" font-family="Arial" font-size="24px" font-style="normal" font-weight="normal" text-decoration="none" x="0" y="330">UNREGISTERED</text><text fill="#eeeeee" stroke="none" font-family="Arial" font-size="24px" font-style="normal" font-weight="normal" text-decoration="none" x="0" y="360">UNREGISTERED</text><text fill="#eeeeee" stroke="none" font-family="Arial" font-size="24px" font-style="normal" font-weight="normal" text-decoration="none" x="0" y="390">UNREGISTERED</text><text fill="#eeeeee" stroke="none" font-family="Arial" font-size="24px" font-style="normal" font-weight="normal" text-decoration="none" x="0" y="420">UNREGISTERED</text><text fill="#eeeeee" stroke="none" font-family="Arial" font-size="24px" font-style="normal" font-weight="normal" text-decoration="none" x="0" y="450">UNREGISTERED</text><text fill="#eeeeee" stroke="none" font-family="Arial" font-size="24px" font-style="normal" font-weight="normal" text-decoration="none" x="0" y="480">UNREGISTERED</text><text fill="#eeeeee" stroke="none" font-family="Arial" font-size="24px" font-style="normal" font-weight="normal" text-decoration="none" x="0" y="510">UNREGISTERED</text><text fill="#eeeeee" stroke="none" font-family="Arial" font-size="24px" font-style="normal" font-weight="normal" text-decoration="none" x="0" y="540">UNREGISTERED</text><text fill="#eeeeee" stroke="none" font-family="Arial" font-size="24px" font-style="normal" font-weight="normal" text-decoration="none" x="0" y="570">UNREGISTERED</text><text fill="#eeeeee" stroke="none" font-family="Arial" font-size="24px" font-style="normal" font-weight="normal" text-decoration="none" x="0" y="600">UNREGISTERED</text><text fill="#eeeeee" stroke="none" font-family="Arial" font-size="24px" font-style="normal" font-weight="normal" text-decoration="none" x="0" y="630">UNREGISTERED</text><text fill="#eeeeee" stroke="none" font-family="Arial" font-size="24px" font-style="normal" font-weight="normal" text-decoration="none" x="0" y="660">UNREGISTERED</text><text fill="#eeeeee" stroke="none" font-family="Arial" font-size="24px" font-style="normal" font-weight="normal" text-decoration="none" x="200" y="0">UNREGISTERED</text><text fill="#eeeeee" stroke="none" font-family="Arial" font-size="24px" font-style="normal" font-weight="normal" text-decoration="none" x="200" y="30">UNREGISTERED</text><text fill="#eeeeee" stroke="none" font-family="Arial" font-size="24px" font-style="normal" font-weight="normal" text-decoration="none" x="200" y="60">UNREGISTERED</text><text fill="#eeeeee" stroke="none" font-family="Arial" font-size="24px" font-style="normal" font-weight="normal" text-decoration="none" x="200" y="90">UNREGISTERED</text><text fill="#eeeeee" stroke="none" font-family="Arial" font-size="24px" font-style="normal" font-weight="normal" text-decoration="none" x="200" y="120">UNREGISTERED</text><text fill="#eeeeee" stroke="none" font-family="Arial" font-size="24px" font-style="normal" font-weight="normal" text-decoration="none" x="200" y="150">UNREGISTERED</text><text fill="#eeeeee" stroke="none" font-family="Arial" font-size="24px" font-style="normal" font-weight="normal" text-decoration="none" x="200" y="180">UNREGISTERED</text><text fill="#eeeeee" stroke="none" font-family="Arial" font-size="24px" font-style="normal" font-weight="normal" text-decoration="none" x="200" y="210">UNREGISTERED</text><text fill="#eeeeee" stroke="none" font-family="Arial" font-size="24px" font-style="normal" font-weight="normal" text-decoration="none" x="200" y="240">UNREGISTERED</text><text fill="#eeeeee" stroke="none" font-family="Arial" font-size="24px" font-style="normal" font-weight="normal" text-decoration="none" x="200" y="270">UNREGISTERED</text><text fill="#eeeeee" stroke="none" font-family="Arial" font-size="24px" font-style="normal" font-weight="normal" text-decoration="none" x="200" y="300">UNREGISTERED</text><text fill="#eeeeee" stroke="none" font-family="Arial" font-size="24px" font-style="normal" font-weight="normal" text-decoration="none" x="200" y="330">UNREGISTERED</text><text fill="#eeeeee" stroke="none" font-family="Arial" font-size="24px" font-style="normal" font-weight="normal" text-decoration="none" x="200" y="360">UNREGISTERED</text><text fill="#eeeeee" stroke="none" font-family="Arial" font-size="24px" font-style="normal" font-weight="normal" text-decoration="none" x="200" y="390">UNREGISTERED</text><text fill="#eeeeee" stroke="none" font-family="Arial" font-size="24px" font-style="normal" font-weight="normal" text-decoration="none" x="200" y="420">UNREGISTERED</text><text fill="#eeeeee" stroke="none" font-family="Arial" font-size="24px" font-style="normal" font-weight="normal" text-decoration="none" x="200" y="450">UNREGISTERED</text><text fill="#eeeeee" stroke="none" font-family="Arial" font-size="24px" font-style="normal" font-weight="normal" text-decoration="none" x="200" y="480">UNREGISTERED</text><text fill="#eeeeee" stroke="none" font-family="Arial" font-size="24px" font-style="normal" font-weight="normal" text-decoration="none" x="200" y="510">UNREGISTERED</text><text fill="#eeeeee" stroke="none" font-family="Arial" font-size="24px" font-style="normal" font-weight="normal" text-decoration="none" x="200" y="540">UNREGISTERED</text><text fill="#eeeeee" stroke="none" font-family="Arial" font-size="24px" font-style="normal" font-weight="normal" text-decoration="none" x="200" y="570">UNREGISTERED</text><text fill="#eeeeee" stroke="none" font-family="Arial" font-size="24px" font-style="normal" font-weight="normal" text-decoration="none" x="200" y="600">UNREGISTERED</text><text fill="#eeeeee" stroke="none" font-family="Arial" font-size="24px" font-style="normal" font-weight="normal" text-decoration="none" x="200" y="630">UNREGISTERED</text><text fill="#eeeeee" stroke="none" font-family="Arial" font-size="24px" font-style="normal" font-weight="normal" text-decoration="none" x="200" y="660">UNREGISTERED</text><text fill="#eeeeee" stroke="none" font-family="Arial" font-size="24px" font-style="normal" font-weight="normal" text-decoration="none" x="400" y="0">UNREGISTERED</text><text fill="#eeeeee" stroke="none" font-family="Arial" font-size="24px" font-style="normal" font-weight="normal" text-decoration="none" x="400" y="30">UNREGISTERED</text><text fill="#eeeeee" stroke="none" font-family="Arial" font-size="24px" font-style="normal" font-weight="normal" text-decoration="none" x="400" y="60">UNREGISTERED</text><text fill="#eeeeee" stroke="none" font-family="Arial" font-size="24px" font-style="normal" font-weight="normal" text-decoration="none" x="400" y="90">UNREGISTERED</text><text fill="#eeeeee" stroke="none" font-family="Arial" font-size="24px" font-style="normal" font-weight="normal" text-decoration="none" x="400" y="120">UNREGISTERED</text><text fill="#eeeeee" stroke="none" font-family="Arial" font-size="24px" font-style="normal" font-weight="normal" text-decoration="none" x="400" y="150">UNREGISTERED</text><text fill="#eeeeee" stroke="none" font-family="Arial" font-size="24px" font-style="normal" font-weight="normal" text-decoration="none" x="400" y="180">UNREGISTERED</text><text fill="#eeeeee" stroke="none" font-family="Arial" font-size="24px" font-style="normal" font-weight="normal" text-decoration="none" x="400" y="210">UNREGISTERED</text><text fill="#eeeeee" stroke="none" font-family="Arial" font-size="24px" font-style="normal" font-weight="normal" text-decoration="none" x="400" y="240">UNREGISTERED</text><text fill="#eeeeee" stroke="none" font-family="Arial" font-size="24px" font-style="normal" font-weight="normal" text-decoration="none" x="400" y="270">UNREGISTERED</text><text fill="#eeeeee" stroke="none" font-family="Arial" font-size="24px" font-style="normal" font-weight="normal" text-decoration="none" x="400" y="300">UNREGISTERED</text><text fill="#eeeeee" stroke="none" font-family="Arial" font-size="24px" font-style="normal" font-weight="normal" text-decoration="none" x="400" y="330">UNREGISTERED</text><text fill="#eeeeee" stroke="none" font-family="Arial" font-size="24px" font-style="normal" font-weight="normal" text-decoration="none" x="400" y="360">UNREGISTERED</text><text fill="#eeeeee" stroke="none" font-family="Arial" font-size="24px" font-style="normal" font-weight="normal" text-decoration="none" x="400" y="390">UNREGISTERED</text><text fill="#eeeeee" stroke="none" font-family="Arial" font-size="24px" font-style="normal" font-weight="normal" text-decoration="none" x="400" y="420">UNREGISTERED</text><text fill="#eeeeee" stroke="none" font-family="Arial" font-size="24px" font-style="normal" font-weight="normal" text-decoration="none" x="400" y="450">UNREGISTERED</text><text fill="#eeeeee" stroke="none" font-family="Arial" font-size="24px" font-style="normal" font-weight="normal" text-decoration="none" x="400" y="480">UNREGISTERED</text><text fill="#eeeeee" stroke="none" font-family="Arial" font-size="24px" font-style="normal" font-weight="normal" text-decoration="none" x="400" y="510">UNREGISTERED</text><text fill="#eeeeee" stroke="none" font-family="Arial" font-size="24px" font-style="normal" font-weight="normal" text-decoration="none" x="400" y="540">UNREGISTERED</text><text fill="#eeeeee" stroke="none" font-family="Arial" font-size="24px" font-style="normal" font-weight="normal" text-decoration="none" x="400" y="570">UNREGISTERED</text><text fill="#eeeeee" stroke="none" font-family="Arial" font-size="24px" font-style="normal" font-weight="normal" text-decoration="none" x="400" y="600">UNREGISTERED</text><text fill="#eeeeee" stroke="none" font-family="Arial" font-size="24px" font-style="normal" font-weight="normal" text-decoration="none" x="400" y="630">UNREGISTERED</text><text fill="#eeeeee" stroke="none" font-family="Arial" font-size="24px" font-style="normal" font-weight="normal" text-decoration="none" x="400" y="660">UNREGISTERED</text><g transform="translate(-246,-78) scale(1,1)"><rect fill="#C0C0C0" stroke="none" x="263" y="543" width="232" height="205" opacity="0.2"/></g><g transform="translate(-246,-78) scale(1,1)"><rect fill="#ffffff" stroke="none" x="256" y="536" width="232" height="205"/></g><g transform="translate(-246,-78) scale(1,1)"><path fill="none" stroke="#000000" d="M 256 536 L 488 536 L 488 741 L 256 741 L 256 536 Z Z" stroke-miterlimit="10"/></g><g transform="translate(-246,-78) scale(1,1)"><path fill="none" stroke="#000000" d="M 256 561 L 488 561" stroke-miterlimit="10"/></g><g transform="translate(-246,-78) scale(1,1)"><path fill="none" stroke="#000000" d="M 256 659 L 488 659" stroke-miterlimit="10"/></g><g transform="translate(-246,-78) scale(1,1)"><g><path fill="none" stroke="none"/><text fill="#000000" stroke="none" font-family="Arial" font-size="13px" font-style="normal" font-weight="bold" text-decoration="none" x="348.513671875" y="555.5">UISetup</text></g></g><g transform="translate(-246,-78) scale(1,1)"><g><path fill="none" stroke="none"/><text fill="#000000" stroke="none" font-family="Arial" font-size="13px" font-style="normal" font-weight="normal" text-decoration="none" x="261" y="578.5">+UIName: string</text></g></g><g transform="translate(-246,-78) scale(1,1)"><g><path fill="none" stroke="none"/><text fill="#000000" stroke="none" font-family="Arial" font-size="13px" font-style="normal" font-weight="normal" text-decoration="none" x="261" y="593.5">#obj: GameObject</text></g></g><g transform="translate(-246,-78) scale(1,1)"><g><path fill="none" stroke="none"/><text fill="#000000" stroke="none" font-family="Arial" font-size="13px" font-style="normal" font-weight="normal" text-decoration="none" x="261" y="608.5">#isActive: bool</text></g></g><g transform="translate(-246,-78) scale(1,1)"><g><path fill="none" stroke="none"/><text fill="#000000" stroke="none" font-family="Arial" font-size="13px" font-style="normal" font-weight="normal" text-decoration="none" x="261" y="623.5">#animator: Animator</text></g></g><g transform="translate(-246,-78) scale(1,1)"><g><path fill="none" stroke="none"/><text fill="#000000" stroke="none" font-family="Arial" font-size="13px" font-style="normal" font-weight="normal" text-decoration="none" x="261" y="638.5">#showClip: string</text></g></g><g transform="translate(-246,-78) scale(1,1)"><g><path fill="none" stroke="none"/><text fill="#000000" stroke="none" font-family="Arial" font-size="13px" font-style="normal" font-weight="normal" text-decoration="none" x="261" y="653.5">#hideClip: string</text></g></g><g transform="translate(-246,-78) scale(1,1)"><g><path fill="none" stroke="none"/><text fill="#000000" stroke="none" font-family="Arial" font-size="13px" font-style="normal" font-weight="normal" text-decoration="none" x="261" y="676.5">+Initilaze()</text></g></g><g transform="translate(-246,-78) scale(1,1)"><g><path fill="none" stroke="none"/><text fill="#000000" stroke="none" font-family="Arial" font-size="13px" font-style="normal" font-weight="normal" text-decoration="none" x="261" y="691.5">+OpenUI()</text></g></g><g transform="translate(-246,-78) scale(1,1)"><g><path fill="none" stroke="none"/><text fill="#000000" stroke="none" font-family="Arial" font-size="13px" font-style="normal" font-weight="normal" text-decoration="none" x="261" y="706.5">+CloseUI(closeImm: bool = false)</text></g></g><g transform="translate(-246,-78) scale(1,1)"><g><path fill="none" stroke="none"/><text fill="#000000" stroke="none" font-family="Arial" font-size="13px" font-style="normal" font-weight="normal" text-decoration="none" x="261" y="721.5">+Disable()</text></g></g><g transform="translate(-246,-78) scale(1,1)"><g><path fill="none" stroke="none"/><text fill="#000000" stroke="none" font-family="Arial" font-size="13px" font-style="normal" font-weight="normal" text-decoration="none" x="261" y="736.5">+Enable()</text></g></g><g transform="translate(-246,-78) scale(1,1)"><rect fill="#C0C0C0" stroke="none" x="263" y="231" width="232" height="208" opacity="0.2"/></g><g transform="translate(-246,-78) scale(1,1)"><rect fill="#ffffff" stroke="none" x="256" y="224" width="232" height="208"/></g><g transform="translate(-246,-78) scale(1,1)"><path fill="none" stroke="#000000" d="M 256 224 L 488 224 L 488 432 L 256 432 L 256 224 Z Z" stroke-miterlimit="10"/></g><g transform="translate(-246,-78) scale(1,1)"><path fill="none" stroke="#000000" d="M 256 264 L 488 264" stroke-miterlimit="10"/></g><g transform="translate(-246,-78) scale(1,1)"><path fill="none" stroke="#000000" d="M 256 317 L 488 317" stroke-miterlimit="10"/></g><g transform="translate(-246,-78) scale(1,1)"><g><path fill="none" stroke="none"/><text fill="#000000" stroke="none" font-family="Arial" font-size="13px" font-style="normal" font-weight="bold" text-decoration="none" x="339.845947265625" y="243.5">UIManager</text></g></g><g transform="translate(-246,-78) scale(1,1)"><g><path fill="none" stroke="none"/><text fill="#000000" stroke="none" font-family="Arial" font-size="13px" font-style="normal" font-weight="normal" text-decoration="none" x="318.1845703125" y="258.5">(from GameSpark)</text></g></g><g transform="translate(-246,-78) scale(1,1)"><g><path fill="none" stroke="none"/><text fill="#000000" stroke="none" font-family="Arial" font-size="13px" font-style="normal" font-weight="normal" text-decoration="none" x="261" y="281.5">-uiSetups: UISetup[*]</text></g></g><g transform="translate(-246,-78) scale(1,1)"><g><path fill="none" stroke="none"/><text fill="#000000" stroke="none" font-family="Arial" font-size="13px" font-style="normal" font-weight="normal" text-decoration="none" x="261" y="296.5">-manager: UIManager</text><path fill="none" stroke="#000000" d="M 261 296.5 L 388.1689453125 296.5" stroke-miterlimit="10"/></g></g><g transform="translate(-246,-78) scale(1,1)"><g><path fill="none" stroke="none"/><text fill="#000000" stroke="none" font-family="Arial" font-size="13px" font-style="normal" font-weight="normal" text-decoration="none" x="261" y="311.5">+UISetting: UISettingData</text></g></g><g transform="translate(-246,-78) scale(1,1)"><g><path fill="none" stroke="none"/><text fill="#000000" stroke="none" font-family="Arial" font-size="13px" font-style="normal" font-weight="normal" text-decoration="none" x="261" y="334.5">+GetInstance(): UIManager</text><path fill="none" stroke="#000000" d="M 261 334.5 L 418.87890625 334.5" stroke-miterlimit="10"/></g></g><g transform="translate(-246,-78) scale(1,1)"><g><path fill="none" stroke="none"/><text fill="#000000" stroke="none" font-family="Arial" font-size="13px" font-style="normal" font-weight="normal" text-decoration="none" x="261" y="349.5">+initilaze()</text></g></g><g transform="translate(-246,-78) scale(1,1)"><g><path fill="none" stroke="none"/><text fill="#000000" stroke="none" font-family="Arial" font-size="13px" font-style="normal" font-weight="normal" text-decoration="none" x="261" y="364.5">+OpenUI(setup: string)</text></g></g><g transform="translate(-246,-78) scale(1,1)"><g><path fill="none" stroke="none"/><text fill="#000000" stroke="none" font-family="Arial" font-size="13px" font-style="normal" font-weight="normal" text-decoration="none" x="261" y="379.5">+OpenUIClean(setup: string)</text></g></g><g transform="translate(-246,-78) scale(1,1)"><g><path fill="none" stroke="none"/><text fill="#000000" stroke="none" font-family="Arial" font-size="13px" font-style="normal" font-weight="normal" text-decoration="none" x="261" y="394.5">+CloseUI(setup.string)</text></g></g><g transform="translate(-246,-78) scale(1,1)"><g><path fill="none" stroke="none"/><text fill="#000000" stroke="none" font-family="Arial" font-size="13px" font-style="normal" font-weight="normal" text-decoration="none" x="261" y="409.5">+ClearScreen()</text></g></g><g transform="translate(-246,-78) scale(1,1)"><g><path fill="none" stroke="none"/><text fill="#000000" stroke="none" font-family="Arial" font-size="13px" font-style="normal" font-weight="normal" text-decoration="none" x="261" y="424.5">-UIManager()</text></g></g><g transform="translate(-246,-78) scale(1,1)"><rect fill="#C0C0C0" stroke="none" x="663" y="295" width="160" height="115" opacity="0.2"/></g><g transform="translate(-246,-78) scale(1,1)"><rect fill="#ffffff" stroke="none" x="656" y="288" width="160" height="115"/></g><g transform="translate(-246,-78) scale(1,1)"><path fill="none" stroke="#000000" d="M 656 288 L 816 288 L 816 403 L 656 403 L 656 288 Z Z" stroke-miterlimit="10"/></g><g transform="translate(-246,-78) scale(1,1)"><path fill="none" stroke="#000000" d="M 656 328 L 816 328" stroke-miterlimit="10"/></g><g transform="translate(-246,-78) scale(1,1)"><path fill="none" stroke="#000000" d="M 656 381 L 816 381" stroke-miterlimit="10"/></g><g transform="translate(-246,-78) scale(1,1)"><g><path fill="none" stroke="none"/><text fill="#000000" stroke="none" font-family="Arial" font-size="13px" font-style="normal" font-weight="bold" text-decoration="none" x="695.53369140625" y="307.5">UISettingData</text></g></g><g transform="translate(-246,-78) scale(1,1)"><g><path fill="none" stroke="none"/><text fill="#000000" stroke="none" font-family="Arial" font-size="13px" font-style="normal" font-weight="normal" text-decoration="none" x="682.1845703125" y="322.5">(from GameSpark)</text></g></g><g transform="translate(-246,-78) scale(1,1)"><g><path fill="none" stroke="none"/><text fill="#000000" stroke="none" font-family="Arial" font-size="13px" font-style="normal" font-weight="normal" text-decoration="none" x="661" y="345.5">+LockSystem: bool</text></g></g><g transform="translate(-246,-78) scale(1,1)"><g><path fill="none" stroke="none"/><text fill="#000000" stroke="none" font-family="Arial" font-size="13px" font-style="normal" font-weight="normal" text-decoration="none" x="661" y="360.5">+ClearAllUIOnStart: bool</text></g></g><g transform="translate(-246,-78) scale(1,1)"><g><path fill="none" stroke="none"/><text fill="#000000" stroke="none" font-family="Arial" font-size="13px" font-style="normal" font-weight="normal" text-decoration="none" x="661" y="375.5">+setup: UISetup[*]</text></g></g><g transform="translate(-246,-78) scale(1,1)"><g><path fill="none" stroke="none"/><text fill="#000000" stroke="none" font-family="Arial" font-size="13px" font-style="normal" font-weight="normal" text-decoration="none" x="661" y="398.5">+DrawTap()</text></g></g><g transform="translate(-246,-78) scale(1,1)"><path fill="none" stroke="#000000" d="M 488 348 L 656 348" stroke-miterlimit="10"/></g><g transform="translate(-246,-78) scale(1,1)"><path fill="none" stroke="#000000" d="M 645.8373251423759 352.209517756016 L 656 348 L 645.8373251423758 343.790482243984" stroke-miterlimit="10"/></g><g transform="translate(-246,-78) scale(1,1)"><path fill="none" stroke="#000000" d="M 378 536 L 378 432" stroke-miterlimit="10"/></g><g transform="translate(-246,-78) scale(1,1)"><path fill="#FFFFFF" stroke="none" d="M 382.209517756016 442.16267485762415 L 378 432 L 373.790482243984 442.16267485762415 L 378 454"/></g><g transform="translate(-246,-78) scale(1,1)"><path fill="none" stroke="#000000" d="M 382.209517756016 442.16267485762415 L 378 432 L 373.790482243984 442.16267485762415 L 378 454 L 382.209517756016 442.16267485762415" stroke-miterlimit="10"/></g><g transform="translate(-246,-78) scale(1,1)"><path fill="none" stroke="#000000" d="M 488 542 L 728 542 M 728 542 A 8 8 0 0 0 736 534 L 736 403" stroke-miterlimit="10"/></g><g transform="translate(-246,-78) scale(1,1)"><path fill="#FFFFFF" stroke="none" d="M 740.209517756016 413.16267485762415 L 736 403 L 731.790482243984 413.16267485762415 L 736 425"/></g><g transform="translate(-246,-78) scale(1,1)"><path fill="none" stroke="#000000" d="M 740.209517756016 413.16267485762415 L 736 403 L 731.790482243984 413.16267485762415 L 736 425 L 740.209517756016 413.16267485762415" stroke-miterlimit="10"/></g><g transform="translate(-246,-78) scale(1,1)"><rect fill="#C0C0C0" stroke="none" x="319" y="95" width="126.75537109375" height="59" opacity="0.2"/></g><g transform="translate(-246,-78) scale(1,1)"><rect fill="#ffffff" stroke="none" x="312" y="88" width="126.75537109375" height="59"/></g><g transform="translate(-246,-78) scale(1,1)"><path fill="none" stroke="#000000" d="M 312 88 L 438.75537109375 88 L 438.75537109375 147 L 312 147 L 312 88 Z Z" stroke-miterlimit="10"/></g><g transform="translate(-246,-78) scale(1,1)"><path fill="none" stroke="#000000" d="M 312 128 L 438.75537109375 128" stroke-miterlimit="10"/></g><g transform="translate(-246,-78) scale(1,1)"><path fill="none" stroke="#000000" d="M 312 138 L 438.75537109375 138" stroke-miterlimit="10"/></g><g transform="translate(-246,-78) scale(1,1)"><g><path fill="none" stroke="none"/><text fill="#000000" stroke="none" font-family="Arial" font-size="13px" font-style="normal" font-weight="bold" text-decoration="none" x="319.378662109375" y="107.5">GameSparkModule</text></g></g><g transform="translate(-246,-78) scale(1,1)"><g><path fill="none" stroke="none"/><text fill="#000000" stroke="none" font-family="Arial" font-size="13px" font-style="normal" font-weight="normal" text-decoration="none" x="321.562255859375" y="122.5">(from GameSpark)</text></g></g><g transform="translate(-246,-78) scale(1,1)"><path fill="none" stroke="#000000" d="M 375 224 L 375 147" stroke-miterlimit="10"/></g><g transform="translate(-246,-78) scale(1,1)"><path fill="#FFFFFF" stroke="none" d="M 383.419035512032 167.3253497152483 L 375 147 L 366.580964487968 167.3253497152483"/></g><g transform="translate(-246,-78) scale(1,1)"><path fill="none" stroke="#000000" d="M 383.419035512032 167.3253497152483 L 375 147 L 366.580964487968 167.3253497152483 L 383.419035512032 167.3253497152483" stroke-miterlimit="10"/></g></g></svg>