<svg version="1.1" xmlns="http://www.w3.org/2000/svg" xmlns:xlink="http://www.w3.org/1999/xlink" width="328" height="196"><defs/><g><text fill="#eeeeee" stroke="none" font-family="Arial" font-size="24px" font-style="normal" font-weight="normal" text-decoration="none" x="0" y="0">UNREGISTERED</text><text fill="#eeeeee" stroke="none" font-family="Arial" font-size="24px" font-style="normal" font-weight="normal" text-decoration="none" x="0" y="30">UNREGISTERED</text><text fill="#eeeeee" stroke="none" font-family="Arial" font-size="24px" font-style="normal" font-weight="normal" text-decoration="none" x="0" y="60">UNREGISTERED</text><text fill="#eeeeee" stroke="none" font-family="Arial" font-size="24px" font-style="normal" font-weight="normal" text-decoration="none" x="0" y="90">UNREGISTERED</text><text fill="#eeeeee" stroke="none" font-family="Arial" font-size="24px" font-style="normal" font-weight="normal" text-decoration="none" x="0" y="120">UNREGISTERED</text><text fill="#eeeeee" stroke="none" font-family="Arial" font-size="24px" font-style="normal" font-weight="normal" text-decoration="none" x="0" y="150">UNREGISTERED</text><text fill="#eeeeee" stroke="none" font-family="Arial" font-size="24px" font-style="normal" font-weight="normal" text-decoration="none" x="0" y="180">UNREGISTERED</text><text fill="#eeeeee" stroke="none" font-family="Arial" font-size="24px" font-style="normal" font-weight="normal" text-decoration="none" x="200" y="0">UNREGISTERED</text><text fill="#eeeeee" stroke="none" font-family="Arial" font-size="24px" font-style="normal" font-weight="normal" text-decoration="none" x="200" y="30">UNREGISTERED</text><text fill="#eeeeee" stroke="none" font-family="Arial" font-size="24px" font-style="normal" font-weight="normal" text-decoration="none" x="200" y="60">UNREGISTERED</text><text fill="#eeeeee" stroke="none" font-family="Arial" font-size="24px" font-style="normal" font-weight="normal" text-decoration="none" x="200" y="90">UNREGISTERED</text><text fill="#eeeeee" stroke="none" font-family="Arial" font-size="24px" font-style="normal" font-weight="normal" text-decoration="none" x="200" y="120">UNREGISTERED</text><text fill="#eeeeee" stroke="none" font-family="Arial" font-size="24px" font-style="normal" font-weight="normal" text-decoration="none" x="200" y="150">UNREGISTERED</text><text fill="#eeeeee" stroke="none" font-family="Arial" font-size="24px" font-style="normal" font-weight="normal" text-decoration="none" x="200" y="180">UNREGISTERED</text><g transform="translate(-30,-26) scale(1,1)"><rect fill="#C0C0C0" stroke="none" x="47" y="123" width="116" height="96" opacity="0.2"/></g><g transform="translate(-30,-26) scale(1,1)"><rect fill="#e2e2e2" stroke="none" x="40" y="116" width="116" height="96"/></g><g transform="translate(-30,-26) scale(1,1)"><path fill="none" stroke="#000000" d="M 40 116 L 156 116 L 156 212 L 40 212 L 40 116 Z Z" stroke-miterlimit="10"/></g><g transform="translate(-30,-26) scale(1,1)"><g><path fill="none" stroke="none"/><text fill="#000000" stroke="none" font-family="Arial" font-size="12px" font-style="normal" font-weight="normal" text-decoration="none" x="62.984375" y="132.5">«metaClass»</text></g></g><g transform="translate(-30,-26) scale(1,1)"><g><path fill="none" stroke="none"/><text fill="#000000" stroke="none" font-family="Arial" font-size="12px" font-style="normal" font-weight="bold" text-decoration="none" x="68.990234375" y="146.5">UMLModel</text></g></g><g transform="translate(-30,-26) scale(1,1)"><rect fill="#C0C0C0" stroke="none" x="231" y="43" width="124" height="36" opacity="0.2"/></g><g transform="translate(-30,-26) scale(1,1)"><rect fill="#ffffff" stroke="none" x="224" y="36" width="124" height="36"/></g><g transform="translate(-30,-26) scale(1,1)"><path fill="none" stroke="#000000" d="M 224 36 L 348 36 L 348 72 L 224 72 L 224 36 Z Z" stroke-miterlimit="10"/></g><g transform="translate(-30,-26) scale(1,1)"><g><path fill="none" stroke="none"/><text fill="#000000" stroke="none" font-family="Arial" font-size="12px" font-style="normal" font-weight="normal" text-decoration="none" x="251.3095703125" y="52.5">«stereotype»</text></g></g><g transform="translate(-30,-26) scale(1,1)"><g><path fill="none" stroke="none"/><text fill="#000000" stroke="none" font-family="Arial" font-size="12px" font-style="normal" font-weight="bold" text-decoration="none" x="241.638671875" y="66.5">BuildComponent</text></g></g><g transform="translate(-30,-26) scale(1,1)"><rect fill="#C0C0C0" stroke="none" x="231" y="123" width="92" height="36" opacity="0.2"/></g><g transform="translate(-30,-26) scale(1,1)"><rect fill="#ffffff" stroke="none" x="224" y="116" width="92" height="36"/></g><g transform="translate(-30,-26) scale(1,1)"><path fill="none" stroke="#000000" d="M 224 116 L 316 116 L 316 152 L 224 152 L 224 116 Z Z" stroke-miterlimit="10"/></g><g transform="translate(-30,-26) scale(1,1)"><g><path fill="none" stroke="none"/><text fill="#000000" stroke="none" font-family="Arial" font-size="12px" font-style="normal" font-weight="normal" text-decoration="none" x="235.3095703125" y="132.5">«stereotype»</text></g></g><g transform="translate(-30,-26) scale(1,1)"><g><path fill="none" stroke="none"/><text fill="#000000" stroke="none" font-family="Arial" font-size="12px" font-style="normal" font-weight="bold" text-decoration="none" x="240.3193359375" y="146.5">Metamodel</text></g></g><g transform="translate(-30,-26) scale(1,1)"><rect fill="#C0C0C0" stroke="none" x="231" y="183" width="92" height="36" opacity="0.2"/></g><g transform="translate(-30,-26) scale(1,1)"><rect fill="#ffffff" stroke="none" x="224" y="176" width="92" height="36"/></g><g transform="translate(-30,-26) scale(1,1)"><path fill="none" stroke="#000000" d="M 224 176 L 316 176 L 316 212 L 224 212 L 224 176 Z Z" stroke-miterlimit="10"/></g><g transform="translate(-30,-26) scale(1,1)"><g><path fill="none" stroke="none"/><text fill="#000000" stroke="none" font-family="Arial" font-size="12px" font-style="normal" font-weight="normal" text-decoration="none" x="235.3095703125" y="192.5">«stereotype»</text></g></g><g transform="translate(-30,-26) scale(1,1)"><g><path fill="none" stroke="none"/><text fill="#000000" stroke="none" font-family="Arial" font-size="12px" font-style="normal" font-weight="bold" text-decoration="none" x="233.654296875" y="206.5">SystemModel</text></g></g><g transform="translate(-30,-26) scale(1,1)"><path fill="none" stroke="#000000" d="M 224 136 L 156 136" stroke-miterlimit="10"/></g><g transform="translate(-30,-26) scale(1,1)"><path fill="#000000" stroke="none" d="M 166.16267485762415 131.790482243984 L 156 136 L 166.16267485762415 140.209517756016"/></g><g transform="translate(-30,-26) scale(1,1)"><path fill="none" stroke="#000000" d="M 166.16267485762415 131.790482243984 L 156 136 L 166.16267485762415 140.209517756016 L 166.16267485762415 131.790482243984" stroke-miterlimit="10"/></g><g transform="translate(-30,-26) scale(1,1)"><path fill="none" stroke="#000000" d="M 224 196 L 156 196" stroke-miterlimit="10"/></g><g transform="translate(-30,-26) scale(1,1)"><path fill="#000000" stroke="none" d="M 166.16267485762415 191.790482243984 L 156 196 L 166.16267485762415 200.209517756016"/></g><g transform="translate(-30,-26) scale(1,1)"><path fill="none" stroke="#000000" d="M 166.16267485762415 191.790482243984 L 156 196 L 166.16267485762415 200.209517756016 L 166.16267485762415 191.790482243984" stroke-miterlimit="10"/></g><g transform="translate(-30,-26) scale(1,1)"><rect fill="#C0C0C0" stroke="none" x="47" y="43" width="116" height="40" opacity="0.2"/></g><g transform="translate(-30,-26) scale(1,1)"><rect fill="#e2e2e2" stroke="none" x="40" y="36" width="116" height="40"/></g><g transform="translate(-30,-26) scale(1,1)"><path fill="none" stroke="#000000" d="M 40 36 L 156 36 L 156 76 L 40 76 L 40 36 Z Z" stroke-miterlimit="10"/></g><g transform="translate(-30,-26) scale(1,1)"><g><path fill="none" stroke="none"/><text fill="#000000" stroke="none" font-family="Arial" font-size="12px" font-style="normal" font-weight="normal" text-decoration="none" x="62.984375" y="52.5">«metaClass»</text></g></g><g transform="translate(-30,-26) scale(1,1)"><g><path fill="none" stroke="none"/><text fill="#000000" stroke="none" font-family="Arial" font-size="12px" font-style="normal" font-weight="bold" text-decoration="none" x="54.3125" y="66.5">UMLComponent</text></g></g><g transform="translate(-30,-26) scale(1,1)"><path fill="none" stroke="#000000" d="M 223 55 L 157 55" stroke-miterlimit="10"/></g><g transform="translate(-30,-26) scale(1,1)"><path fill="#000000" stroke="none" d="M 167.16267485762415 50.790482243984016 L 157 55 L 167.16267485762415 59.209517756015984"/></g><g transform="translate(-30,-26) scale(1,1)"><path fill="none" stroke="#000000" d="M 167.16267485762415 50.790482243984016 L 157 55 L 167.16267485762415 59.209517756015984 L 167.16267485762415 50.790482243984016" stroke-miterlimit="10"/></g></g></svg>